<svg width="38" height="39" viewBox="0 0 38 39" fill="none" xmlns="http://www.w3.org/2000/svg">
<path d="M23.2268 4.37988C23.0078 4.37988 22.7852 4.44082 22.5811 4.58174L9.42578 13.4062H3.33984C3.01328 13.4062 2.74609 13.6805 2.74609 14.0156V24.9844C2.74609 25.3195 3.01328 25.5938 3.33984 25.5938H9.42578L22.5811 34.4183C22.7852 34.5554 23.0115 34.6201 23.2268 34.6201C23.8465 34.6201 24.418 34.1136 24.418 33.3976V5.60244C24.418 4.88643 23.8465 4.37988 23.2268 4.37988ZM21.7461 30.583L10.8879 23.2972L10.2199 22.8516H5.41797V16.1484H10.2199L10.8842 15.7028L21.7461 8.41699V30.583ZM34.6602 18.1289H29.9102C29.5836 18.1289 29.3164 18.4031 29.3164 18.7383V20.2617C29.3164 20.5969 29.5836 20.8711 29.9102 20.8711H34.6602C34.9867 20.8711 35.2539 20.5969 35.2539 20.2617V18.7383C35.2539 18.4031 34.9867 18.1289 34.6602 18.1289ZM33.1053 28.0998L29.0121 25.6737C28.9449 25.6342 28.8707 25.6087 28.7938 25.5986C28.717 25.5885 28.6389 25.594 28.5641 25.6149C28.4893 25.6358 28.4193 25.6715 28.358 25.7202C28.2967 25.7688 28.2453 25.8294 28.2068 25.8984L27.4684 27.2124C27.3051 27.5019 27.4016 27.8751 27.6836 28.0427L31.7768 30.4688C31.844 30.5083 31.9182 30.5338 31.995 30.5439C32.0719 30.554 32.15 30.5484 32.2247 30.5276C32.2995 30.5067 32.3696 30.4709 32.4309 30.4223C32.4922 30.3736 32.5435 30.3131 32.582 30.244L33.3205 28.9301C33.4838 28.6406 33.3836 28.2674 33.1053 28.0998ZM28.2031 13.1016C28.2416 13.1706 28.293 13.2312 28.3543 13.2798C28.4156 13.3285 28.4856 13.3642 28.5604 13.3851C28.6352 13.406 28.7132 13.4115 28.7901 13.4014C28.867 13.3913 28.9411 13.3658 29.0084 13.3263L33.1016 10.9002C33.3836 10.7326 33.4801 10.3594 33.3168 10.0699L32.582 8.75977C32.5435 8.69074 32.4922 8.63017 32.4309 8.58152C32.3696 8.53287 32.2995 8.49709 32.2247 8.47623C32.15 8.45536 32.0719 8.44982 31.995 8.45991C31.9182 8.47001 31.844 8.49554 31.7768 8.53506L27.6836 10.9611C27.5481 11.0422 27.4493 11.1751 27.409 11.3307C27.3687 11.4863 27.39 11.6519 27.4684 11.7914L28.2031 13.1016Z" fill="#02275E"/>
</svg>
