<svg width="248" height="54" viewBox="0 0 248 54" fill="none" xmlns="http://www.w3.org/2000/svg">
<path fill-rule="evenodd" clip-rule="evenodd" d="M3.15674 50.9744H68.4783V3.05487H3.15674V50.9744Z" fill="#02275E"/>
<mask id="mask0_1588:7159" style="mask-type:alpha" maskUnits="userSpaceOnUse" x="3" y="3" width="66" height="48">
<path fill-rule="evenodd" clip-rule="evenodd" d="M3.15674 3.83374H68.4783V50.9744H3.15674V3.83374Z" fill="white"/>
</mask>
<g mask="url(#mask0_1588:7159)">
<path fill-rule="evenodd" clip-rule="evenodd" d="M51.2268 20.7205C51.2268 20.7205 47.7297 18.1357 47.6888 18.106C47.5952 18.0385 47.5534 17.594 47.5265 17.4938C47.4031 17.0324 47.2856 16.572 47.1621 16.1136C46.9848 15.4557 46.9032 14.7642 46.6164 14.141C46.3784 13.6171 45.9931 13.1796 45.6276 12.744C44.8758 11.845 44.3182 10.9649 44.6976 9.75838C44.8778 9.18488 45.058 8.61038 45.2383 8.03687C45.6236 6.81544 45.9074 5.84306 46.2928 4.62163C46.3485 4.43907 45.8636 4.37656 44.9206 5.05821C44.2814 5.51861 43.9587 5.89466 43.5445 6.57731C43.1412 7.24111 42.5856 8.30676 42.2879 9.01719L40.7285 8.92888C40.7285 8.92888 41.779 4.12949 41.319 3.84571C40.7972 3.67208 38.9919 5.42236 38.3347 6.79064C37.9932 7.50306 37.1388 10.4113 36.4308 10.7645C34.3945 11.7815 32.6231 12.9444 30.9054 14.4347C28.8013 16.2624 26.7242 18.1159 24.6142 19.9346C20.0536 23.8649 13.7714 24.1169 8.03387 24.1506C6.47253 24.1595 4.51687 24.1238 2.95851 24.0692C2.88184 30.742 2.88184 37.9306 2.88184 44.7175C5.42798 45.6759 7.99006 46.311 10.6846 46.7128C12.2609 46.946 13.8571 47.0135 15.4453 46.9311C15.8247 46.9133 17.9566 46.431 18.2145 46.6582C19.7201 47.968 20.1781 49.5823 20.3354 51.1749C22.6725 51.1749 25.0842 51.2939 27.4899 51.2939C27.5049 50.9804 27.5965 49.9376 27.5995 48.6725C27.5995 47.6614 27.9301 46.7416 28.3463 45.8347C28.7585 44.9348 29.1568 43.9654 29.8967 43.2807C30.3537 42.859 30.9353 42.6665 31.4461 42.3272C34.3447 40.3983 35.5775 38.5865 36.7485 35.3201C37.4833 33.2771 38.3198 31.2659 39.2966 29.3211C39.7029 28.5124 40.0633 27.6522 40.5244 26.8733C40.8261 26.3653 40.7693 26.2134 41.308 26.014C42.7768 25.4693 43.6471 26.9725 44.6269 27.675C45.4872 28.2922 46.4899 28.1949 47.4299 27.8288C47.7416 27.7067 48.0433 27.5619 48.344 27.417C48.586 27.2999 48.9684 27.1799 49.1267 26.9705C49.1267 26.9705 49.762 26.14 49.8108 25.7679C50.0348 25.3968 49.9024 24.6656 51.1162 24.3639C52.5909 23.9958 52.4794 21.5996 52.2633 21.5708C52.2574 21.5272 51.2268 20.7205 51.2268 20.7205Z" fill="#BC9774"/>
<path fill-rule="evenodd" clip-rule="evenodd" d="M47.2359 51.1749C56.5532 51.1749 61.5628 51.1749 69.0768 51.1749C69.2769 51.1749 69.1495 50.3215 69.0768 50.2749C67.6738 49.3779 66.4719 48.7796 62.9649 48.7796C58.9888 48.7796 48.8699 52.4082 47.1373 46.5551C46.8237 45.5003 47.5635 43.9911 48.2964 43.1567C49.2165 42.1069 51.0706 42.0265 52.0434 40.9321C52.9655 39.8982 53.4116 38.4129 52.3113 37.7203C52.3113 37.7203 49.8358 36.2349 49.5132 35.715C48.7046 34.4152 47.67 33.538 46.1615 33.1173C45.0343 32.8068 44.7505 32.6212 44.3233 31.7818C43.9897 31.1259 43.8623 30.358 43.8015 29.7517C41.9504 29.9879 41.1947 33.415 40.2178 35.5691C39.6443 36.8332 38.6933 38.4029 38.0809 39.7682C37.2634 41.586 36.5863 42.4334 35.5816 43.6647C33.9197 45.6948 33.0593 49.0148 33.7444 51.1749C40.6998 51.1719 41.2255 51.1749 47.2359 51.1749Z" fill="#B3B3B0"/>
</g>
<path fill-rule="evenodd" clip-rule="evenodd" d="M75.5709 8.66295C75.5709 4.93218 75.5709 4.24556 75.5221 3.45972C75.4723 2.62625 75.2752 2.23234 74.4616 2.06068C74.2645 2.01206 73.8463 1.98626 73.5007 1.98626C73.2309 1.98626 73.0825 1.93764 73.0825 1.76599C73.0825 1.59433 73.2548 1.54572 73.6242 1.54572C74.9306 1.54572 76.482 1.61914 77.1711 1.61914C77.9358 1.61914 79.4872 1.54572 80.9659 1.54572C84.0448 1.54572 88.1583 1.54572 90.8418 4.34379C92.0746 5.62078 93.2316 7.65683 93.2316 10.5769C93.2316 13.6707 91.9272 16.0272 90.5481 17.4263C89.4139 18.5802 86.8538 20.3226 82.2953 20.3226C81.409 20.3226 80.3983 20.2502 79.4623 20.1767C78.5253 20.1013 77.664 20.0289 77.0486 20.0289C76.7778 20.0289 76.2361 20.0289 75.6446 20.0527C75.078 20.0527 74.4377 20.1013 73.9448 20.1013C73.6242 20.1013 73.4519 20.0289 73.4519 19.8562C73.4519 19.7332 73.5505 19.6598 73.8463 19.6598C74.2157 19.6598 74.5114 19.6112 74.7325 19.5615C75.2254 19.4633 75.3479 18.9245 75.4474 18.2121C75.5709 17.1812 75.5709 15.2434 75.5709 12.9841V8.66295ZM78.6498 11.3628C78.6498 13.9654 78.6747 15.8556 78.6996 16.3219C78.7235 16.9361 78.7733 17.9184 78.9704 18.1883C79.2901 18.6547 80.251 19.1706 82.1967 19.1706C84.71 19.1706 86.3848 18.6775 87.8615 17.4025C89.4388 16.052 89.9317 13.8176 89.9317 11.2904C89.9317 8.17179 88.6263 6.16055 87.5678 5.15344C85.3014 2.99337 82.4924 2.69868 80.5706 2.69868C80.0777 2.69868 79.1666 2.77309 78.9704 2.87132C78.7484 2.96955 78.6747 3.0916 78.6747 3.36248C78.6498 4.19595 78.6498 6.33121 78.6498 8.27201V11.3628Z" fill="#02275E"/>
<path fill-rule="evenodd" clip-rule="evenodd" d="M95.3999 12.1992C95.3999 8.63913 97.9122 4.02429 104.49 4.02429C109.959 4.02429 113.358 7.04463 113.358 11.8311C113.358 16.6176 109.861 20.3722 104.268 20.3722C97.963 20.3722 95.3999 15.9042 95.3999 12.1992ZM110.131 12.5912C110.131 7.97633 107.347 5.12963 103.851 5.12963C101.436 5.12963 98.6023 6.40563 98.6023 11.5593C98.6023 15.8556 101.067 19.243 105.156 19.243C106.683 19.243 110.131 18.5316 110.131 12.5912Z" fill="#02275E"/>
<path fill-rule="evenodd" clip-rule="evenodd" d="M117.399 10.3577C117.399 7.19048 117.399 6.60209 117.373 5.93929C117.323 5.22687 117.126 5.0066 116.436 4.81014C116.265 4.76152 115.895 4.73572 115.575 4.73572C115.354 4.73572 115.206 4.6623 115.206 4.51545C115.206 4.3676 115.377 4.31799 115.697 4.31799C116.831 4.31799 118.21 4.3676 118.655 4.3676C119.392 4.3676 121.363 4.31799 122.029 4.31799C123.408 4.31799 124.984 4.44103 126.142 5.20207C126.759 5.62078 127.669 6.67651 127.669 8.07356C127.669 9.62044 126.782 10.9947 124.665 12.6904C126.586 15.0459 128.113 16.9361 129.417 18.2379C130.627 19.4395 131.389 19.5367 131.736 19.6112C131.957 19.6598 132.078 19.6598 132.25 19.6598C132.424 19.6598 132.522 19.7818 132.522 19.881C132.522 20.0527 132.375 20.1013 132.104 20.1013H130.037C128.827 20.1013 128.237 19.9793 127.669 19.6836C126.733 19.2182 125.921 18.2379 124.714 16.6176C123.85 15.4865 122.94 14.0884 122.669 13.7679C122.547 13.6469 122.422 13.6221 122.275 13.6221L120.328 13.5725C120.231 13.5725 120.156 13.6221 120.156 13.7451V14.0388C120.156 15.9786 120.182 17.5969 120.279 18.482C120.354 19.0952 120.453 19.4891 121.116 19.5863C121.438 19.636 121.906 19.6598 122.176 19.6598C122.349 19.6598 122.448 19.7818 122.448 19.881C122.448 20.0289 122.275 20.1013 122.004 20.1013C120.749 20.1013 118.949 20.0289 118.629 20.0289C118.21 20.0289 116.831 20.1013 115.968 20.1013C115.697 20.1013 115.551 20.0289 115.551 19.881C115.551 19.7818 115.624 19.6598 115.895 19.6598C116.215 19.6598 116.462 19.636 116.659 19.5863C117.102 19.4891 117.224 19.0952 117.3 18.482C117.399 17.5969 117.399 15.9538 117.399 14.0388V10.3577ZM120.156 11.977C120.156 12.1992 120.207 12.2727 120.354 12.3451C120.822 12.4929 121.462 12.5425 122.004 12.5425C122.867 12.5425 123.161 12.4681 123.533 12.1992C124.196 11.7319 124.935 10.823 124.935 9.10547C124.935 6.16054 122.916 5.39851 121.636 5.39851C121.093 5.39851 120.575 5.42431 120.354 5.47293C120.207 5.52155 120.156 5.59597 120.156 5.76762V11.977Z" fill="#02275E"/>
<path fill-rule="evenodd" clip-rule="evenodd" d="M131.807 12.1992C131.807 8.63913 134.32 4.02429 140.897 4.02429C146.365 4.02429 149.766 7.04463 149.766 11.8311C149.766 16.6176 146.269 20.3722 140.676 20.3722C134.37 20.3722 131.807 15.9042 131.807 12.1992ZM146.538 12.5912C146.538 7.97633 143.755 5.12963 140.257 5.12963C137.843 5.12963 135.011 6.40563 135.011 11.5593C135.011 15.8556 137.474 19.243 141.563 19.243C143.089 19.243 146.538 18.5316 146.538 12.5912Z" fill="#02275E"/>
<path fill-rule="evenodd" clip-rule="evenodd" d="M156.982 5.59598L153.757 5.6694C152.501 5.69322 151.982 5.84106 151.664 6.3084C151.441 6.60209 151.342 6.87198 151.292 7.01784C151.245 7.19048 151.194 7.28871 151.046 7.28871C150.898 7.28871 150.849 7.16568 150.849 6.9454C150.849 6.60209 151.269 4.58887 151.318 4.41721C151.365 4.14733 151.441 4.02429 151.564 4.02429C151.737 4.02429 151.958 4.19595 152.501 4.27036C153.14 4.34379 153.954 4.3676 154.669 4.3676H163.461C164.15 4.3676 164.618 4.31799 164.941 4.27036C165.285 4.22075 165.457 4.17213 165.532 4.17213C165.68 4.17213 165.704 4.29418 165.704 4.61367C165.704 5.05521 165.654 6.60209 165.654 7.14286C165.631 7.36313 165.581 7.48517 165.457 7.48517C165.285 7.48517 165.236 7.38794 165.212 7.06745L165.189 6.84717C165.136 6.3084 164.57 5.6694 162.624 5.64559L159.891 5.59598V14.0388C159.891 15.9538 159.913 17.5969 160.012 18.5068C160.087 19.0952 160.211 19.4891 160.851 19.5864C161.146 19.636 161.639 19.6598 161.959 19.6598C162.208 19.6598 162.303 19.7818 162.303 19.881C162.303 20.0289 162.131 20.1013 161.885 20.1013C160.457 20.1013 159.003 20.0289 158.389 20.0289C157.893 20.0289 156.416 20.1013 155.553 20.1013C155.284 20.1013 155.136 20.0289 155.136 19.881C155.136 19.7818 155.211 19.6598 155.48 19.6598C155.801 19.6598 156.072 19.636 156.243 19.5864C156.687 19.4891 156.81 19.0952 156.885 18.482C156.982 17.5969 156.982 15.9538 156.982 14.0388V5.59598Z" fill="#02275E"/>
<path fill-rule="evenodd" clip-rule="evenodd" d="M180.929 11.1177C180.975 11.1177 181.05 11.0929 181.05 10.9709V10.5293C181.05 7.36313 181.027 6.60209 181.001 5.93929C180.952 5.22687 180.753 5.0066 180.066 4.81014C179.891 4.76152 179.522 4.73572 179.228 4.73572C178.981 4.73572 178.857 4.6623 178.857 4.51545C178.857 4.3676 179.004 4.31799 179.327 4.31799C180.484 4.31799 182.01 4.3676 182.578 4.3676C183.095 4.3676 184.523 4.31799 185.361 4.31799C185.681 4.31799 185.829 4.3676 185.829 4.51545C185.829 4.6623 185.681 4.73572 185.434 4.73572C185.262 4.73572 185.065 4.76152 184.794 4.81014C184.227 4.90737 184.055 5.20207 184.006 5.93929C183.957 6.60209 183.957 7.19048 183.957 10.3577V14.0388C183.957 15.9538 183.957 17.5969 184.055 18.5068C184.128 19.0952 184.253 19.4891 184.916 19.5863C185.215 19.636 185.681 19.6598 186.027 19.6598C186.245 19.6598 186.371 19.7818 186.371 19.881C186.371 20.0289 186.198 20.1013 185.928 20.1013C184.523 20.1013 183.095 20.0289 182.505 20.0289C182.01 20.0289 180.484 20.1013 179.644 20.1013C179.35 20.1013 179.178 20.0289 179.178 19.881C179.178 19.7818 179.278 19.6598 179.522 19.6598C179.868 19.6598 180.112 19.636 180.31 19.5863C180.753 19.4891 180.879 19.0952 180.952 18.482C181.05 17.5969 181.05 16.0024 181.05 14.0884V12.4929C181.05 12.4195 180.975 12.3709 180.929 12.3709H172.748C172.675 12.3709 172.6 12.3947 172.6 12.4929V14.0884C172.6 16.0024 172.626 17.5969 172.725 18.5068C172.797 19.0952 172.923 19.4891 173.562 19.5863C173.857 19.636 174.351 19.6598 174.67 19.6598C174.917 19.6598 175.017 19.7818 175.017 19.881C175.017 20.0289 174.843 20.1013 174.572 20.1013C173.167 20.1013 171.663 20.0289 171.05 20.0289C170.555 20.0289 169.127 20.1013 168.266 20.1013C167.995 20.1013 167.847 20.0289 167.847 19.881C167.847 19.7818 167.922 19.6598 168.19 19.6598C168.513 19.6598 168.758 19.636 168.955 19.5863C169.398 19.4891 169.522 19.0952 169.595 18.482C169.694 17.5969 169.694 15.9538 169.694 14.0388V10.3577C169.694 7.19048 169.694 6.60209 169.668 5.93929C169.621 5.22687 169.424 5.0066 168.734 4.81014C168.559 4.76152 168.19 4.73572 167.87 4.73572C167.649 4.73572 167.501 4.6623 167.501 4.51545C167.501 4.3676 167.673 4.31799 167.969 4.31799C169.127 4.31799 170.555 4.3676 171.145 4.3676C171.663 4.3676 173.167 4.31799 174.028 4.31799C174.325 4.31799 174.473 4.3676 174.473 4.51545C174.473 4.6623 174.351 4.73572 174.08 4.73572C173.906 4.73572 173.711 4.76152 173.464 4.81014C172.873 4.90737 172.699 5.20207 172.649 5.93929C172.6 6.60209 172.6 7.36313 172.6 10.5293V10.9709C172.6 11.0929 172.675 11.1177 172.748 11.1177H180.929Z" fill="#02275E"/>
<path fill-rule="evenodd" clip-rule="evenodd" d="M193.392 14.6768C193.392 13.5477 193.194 13.1071 192.9 12.4929C192.751 12.1724 189.794 7.58341 189.032 6.47906C188.489 5.71802 188.046 5.22687 187.624 5.0066C187.356 4.85776 186.985 4.73572 186.716 4.73572C186.545 4.73572 186.394 4.6623 186.394 4.51545C186.394 4.3676 186.545 4.31799 186.813 4.31799C187.184 4.31799 188.811 4.3676 189.523 4.3676C189.992 4.3676 191.001 4.31799 191.987 4.31799C192.185 4.31799 192.307 4.3676 192.307 4.51545C192.307 4.6871 192.159 4.6871 191.815 4.78533C191.643 4.83395 191.519 4.93218 191.519 5.10384C191.519 5.27549 191.617 5.52156 191.79 5.81725C192.185 6.45425 195.018 11.34 195.384 11.9274C195.657 11.4382 198.293 6.97021 198.612 6.33122C198.834 5.86487 198.933 5.49676 198.933 5.22687C198.933 5.03041 198.834 4.83395 198.467 4.76152C198.267 4.71191 198.072 4.6871 198.072 4.51545C198.072 4.3676 198.194 4.31799 198.441 4.31799C199.156 4.31799 199.919 4.3676 200.558 4.3676C201.027 4.3676 202.455 4.31799 202.876 4.31799C203.121 4.31799 203.27 4.3676 203.27 4.49064C203.27 4.63848 203.095 4.73572 202.85 4.73572C202.629 4.73572 202.234 4.83395 201.914 4.98179C201.448 5.20207 201.248 5.39853 200.782 5.96409C200.067 6.79756 196.964 11.7567 196.568 12.6408C196.249 13.3998 196.297 14.0388 196.297 14.7274V16.3954C196.297 16.7387 196.297 17.5969 196.347 18.482C196.396 19.0952 196.594 19.4891 197.234 19.5863C197.554 19.636 198.022 19.6598 198.316 19.6598C198.564 19.6598 198.688 19.7818 198.688 19.881C198.688 20.0289 198.517 20.1013 198.217 20.1013C196.865 20.1013 195.41 20.0289 194.82 20.0289C194.279 20.0289 192.825 20.1013 192.011 20.1013C191.717 20.1013 191.545 20.0527 191.545 19.881C191.545 19.7818 191.643 19.6598 191.888 19.6598C192.185 19.6598 192.456 19.636 192.651 19.5863C193.095 19.4891 193.267 19.0952 193.316 18.482C193.392 17.5969 193.392 16.7387 193.392 16.3954V14.6768Z" fill="#02275E"/>
<path fill-rule="evenodd" clip-rule="evenodd" d="M226.105 9.35155C226.177 9.35155 226.25 9.30194 226.25 9.1799V8.66295C226.25 4.93218 226.25 4.24556 226.201 3.45972C226.154 2.62625 225.956 2.23234 225.143 2.06068C224.945 2.01206 224.528 1.98626 224.182 1.98626C223.912 1.98626 223.764 1.93764 223.764 1.76599C223.764 1.59433 223.935 1.54572 224.281 1.54572C225.611 1.54572 227.161 1.61914 227.827 1.61914C228.42 1.61914 229.97 1.54572 230.933 1.54572C231.277 1.54572 231.451 1.59433 231.451 1.76599C231.451 1.93764 231.302 1.98626 231.006 1.98626C230.809 1.98626 230.587 2.01206 230.294 2.06068C229.628 2.18272 229.429 2.60144 229.38 3.45972C229.331 4.24556 229.331 4.93218 229.331 8.66295V12.9841C229.331 15.2434 229.331 17.1812 229.453 18.2379C229.528 18.9245 229.676 19.4633 230.415 19.5615C230.759 19.6112 231.302 19.6598 231.672 19.6598C231.943 19.6598 232.064 19.7332 232.064 19.8562C232.064 20.0289 231.87 20.1013 231.573 20.1013C229.97 20.1013 228.42 20.0289 227.731 20.0289C227.161 20.0289 225.611 20.1013 224.651 20.1013C224.304 20.1013 224.133 20.0289 224.133 19.8562C224.133 19.7332 224.232 19.6598 224.528 19.6598C224.898 19.6598 225.191 19.6112 225.415 19.5615C225.907 19.4633 226.032 18.9245 226.128 18.2121C226.25 17.1812 226.25 15.2434 226.25 12.9841V10.823C226.25 10.7248 226.177 10.6762 226.105 10.6762H216.693C216.62 10.6762 216.544 10.702 216.544 10.823V12.9841C216.544 15.2434 216.544 17.1812 216.67 18.2379C216.742 18.9245 216.893 19.4633 217.63 19.5615C217.975 19.6112 218.517 19.6598 218.886 19.6598C219.156 19.6598 219.282 19.7332 219.282 19.8562C219.282 20.0289 219.083 20.1013 218.787 20.1013C217.187 20.1013 215.634 20.0289 214.944 20.0289C214.378 20.0289 212.827 20.1013 211.841 20.1013C211.521 20.1013 211.346 20.0289 211.346 19.8562C211.346 19.7332 211.446 19.6598 211.743 19.6598C212.112 19.6598 212.408 19.6112 212.629 19.5615C213.121 19.4633 213.246 18.9245 213.345 18.2121C213.467 17.1812 213.467 15.2434 213.467 12.9841V8.66295C213.467 4.93218 213.467 4.24556 213.418 3.45972C213.368 2.62625 213.171 2.23234 212.359 2.06068C212.161 2.01206 211.743 1.98626 211.399 1.98626C211.128 1.98626 210.978 1.93764 210.978 1.76599C210.978 1.59433 211.152 1.54572 211.498 1.54572C212.827 1.54572 214.378 1.61914 215.041 1.61914C215.634 1.61914 217.187 1.54572 218.147 1.54572C218.491 1.54572 218.665 1.59433 218.665 1.76599C218.665 1.93764 218.517 1.98626 218.222 1.98626C218.025 1.98626 217.804 2.01206 217.507 2.06068C216.844 2.18272 216.643 2.60144 216.594 3.45972C216.544 4.24556 216.544 4.93218 216.544 8.66295V9.1799C216.544 9.30194 216.62 9.35155 216.693 9.35155H226.105Z" fill="#02275E"/>
<path fill-rule="evenodd" clip-rule="evenodd" d="M233.617 18.5316C233.617 17.9184 234.059 17.0344 235.118 17.0344C235.958 17.0344 236.621 17.597 236.621 18.4572C236.621 19.3155 236.032 20.0289 235.095 20.0289C234.059 20.0289 233.617 19.2183 233.617 18.5316Z" fill="#02275E"/>
<path fill-rule="evenodd" clip-rule="evenodd" d="M73.0825 32.5309C73.0825 27.9091 76.1485 21.934 84.2878 21.934C91.042 21.934 95.248 25.8532 95.248 32.0428C95.248 38.2362 90.9065 43.1279 84.0159 43.1279C76.2301 43.1279 73.0825 37.3154 73.0825 32.5309ZM91.4492 33.0439C91.4492 26.9883 87.9501 23.2318 83.5011 23.2318C80.3804 23.2318 76.8265 24.9612 76.8265 31.6935C76.8265 37.3154 79.9463 41.7775 85.1551 41.7775C87.056 41.7775 91.4492 40.8577 91.4492 33.0439Z" fill="#02275E"/>
<path fill-rule="evenodd" clip-rule="evenodd" d="M98.1779 23.7666C97.9061 23.4967 97.8792 23.4153 97.8792 23.2804C97.8792 23.199 98.0415 23.0641 98.1779 23.0641C98.7196 23.0641 99.9145 23.4153 100.429 23.5771C101.107 23.7666 101.216 23.9561 101.216 24.3629C101.216 26.011 99.4535 28.9033 98.2327 30.1476C98.0694 30.3093 97.9609 30.3639 97.7976 30.3639C97.7169 30.3639 97.6353 30.3093 97.6353 30.2002C97.6353 30.1476 97.6621 30.0652 97.7707 29.8489C98.2596 28.9033 98.8292 27.3078 98.8292 25.633C98.8292 24.74 98.4219 24.0097 98.1779 23.7666Z" fill="#02275E"/>
<path fill-rule="evenodd" clip-rule="evenodd" d="M106.587 40.181C103.929 37.8552 103.223 34.8289 103.223 32.2065C103.223 30.3689 103.793 27.1779 106.398 24.7995C108.351 23.0145 110.927 21.934 114.972 21.934C116.652 21.934 117.656 22.0411 118.905 22.2038C119.937 22.3398 120.804 22.5819 121.617 22.6632C121.916 22.69 122.024 22.826 122.024 22.9877C122.024 23.204 121.943 23.5285 121.889 24.4741C121.834 25.3661 121.862 26.8534 121.808 27.3952C121.78 27.8 121.725 28.0163 121.481 28.0163C121.264 28.0163 121.21 27.8 121.21 27.421C121.184 26.5835 120.83 25.6379 120.152 24.9354C119.256 23.9869 117.141 23.2586 114.645 23.2586C112.286 23.2586 110.738 23.8529 109.545 24.9354C107.564 26.7463 107.049 29.3141 107.049 31.9356C107.049 38.3692 111.96 41.5602 115.594 41.5602C118.01 41.5602 119.475 41.2903 120.559 40.046C121.019 39.5331 121.374 38.7472 121.481 38.263C121.564 37.8294 121.617 37.7203 121.834 37.7203C122.024 37.7203 122.079 37.9098 122.079 38.1281C122.079 38.4515 121.753 40.8031 121.481 41.7229C121.345 42.1823 121.237 42.3162 120.775 42.5058C119.691 42.9394 117.629 43.1279 115.893 43.1279C112.176 43.1279 109.056 42.3162 106.587 40.181Z" fill="#02275E"/>
<path fill-rule="evenodd" clip-rule="evenodd" d="M124.928 32.5309C124.928 27.9091 127.993 21.934 136.132 21.934C142.886 21.934 147.094 25.8532 147.094 32.0428C147.094 38.2362 142.753 43.1279 135.861 43.1279C128.075 43.1279 124.928 37.3154 124.928 32.5309ZM143.293 33.0439C143.293 26.9883 139.794 23.2318 135.344 23.2318C132.226 23.2318 128.671 24.9612 128.671 31.6935C128.671 37.3154 131.789 41.7775 136.998 41.7775C138.899 41.7775 143.293 40.8577 143.293 33.0439Z" fill="#02275E"/>
<path fill-rule="evenodd" clip-rule="evenodd" d="M154.281 39.0736C154.336 41.1811 154.689 41.8836 155.229 42.0731C155.691 42.2339 156.207 42.2627 156.641 42.2627C156.94 42.2627 157.104 42.3162 157.104 42.48C157.104 42.6953 156.859 42.7498 156.479 42.7498C154.716 42.7498 153.631 42.6695 153.116 42.6695C152.871 42.6695 151.597 42.7498 150.184 42.7498C149.831 42.7498 149.588 42.7211 149.588 42.48C149.588 42.3162 149.753 42.2627 150.021 42.2627C150.374 42.2627 150.863 42.2339 151.243 42.1277C151.948 41.9094 152.057 41.1266 152.084 38.776L152.328 22.7714C152.328 22.2316 152.411 21.8536 152.681 21.8536C152.978 21.8536 153.223 22.2038 153.686 22.69C154.01 23.0413 158.134 27.4467 162.093 31.368C163.939 33.2056 167.603 37.0991 168.063 37.5317H168.201L167.927 25.3948C167.901 23.7448 167.657 23.2318 167.004 22.9619C166.599 22.8002 165.948 22.8002 165.568 22.8002C165.243 22.8002 165.134 22.7168 165.134 22.5541C165.134 22.3398 165.431 22.312 165.839 22.312C167.249 22.312 168.553 22.3924 169.122 22.3924C169.421 22.3924 170.451 22.312 171.781 22.312C172.134 22.312 172.405 22.3398 172.405 22.5541C172.405 22.7168 172.241 22.8002 171.915 22.8002C171.645 22.8002 171.426 22.8002 171.102 22.8795C170.342 23.0968 170.126 23.6624 170.1 25.1775L169.798 42.2339C169.798 42.8302 169.692 43.0733 169.447 43.0733C169.148 43.0733 168.822 42.7756 168.524 42.48C166.814 40.8577 163.342 37.3154 160.522 34.5312C157.564 31.6111 154.552 28.2326 154.064 27.7186H153.983L154.281 39.0736Z" fill="#02275E"/>
<path fill-rule="evenodd" clip-rule="evenodd" d="M179.972 39.0736C180.027 41.1811 180.379 41.8836 180.923 42.0731C181.384 42.2339 181.902 42.2627 182.333 42.2627C182.632 42.2627 182.794 42.3162 182.794 42.48C182.794 42.6953 182.549 42.7498 182.171 42.7498C180.408 42.7498 179.322 42.6695 178.807 42.6695C178.562 42.6695 177.287 42.7498 175.877 42.7498C175.524 42.7498 175.28 42.7211 175.28 42.48C175.28 42.3162 175.443 42.2627 175.714 42.2627C176.067 42.2627 176.553 42.2339 176.934 42.1277C177.642 41.9094 177.748 41.1266 177.774 38.776L178.018 22.7714C178.018 22.2316 178.102 21.8536 178.373 21.8536C178.671 21.8536 178.916 22.2038 179.376 22.69C179.702 23.0413 183.826 27.4467 187.785 31.368C189.63 33.2056 193.293 37.0991 193.756 37.5317H193.891L193.618 25.3948C193.592 23.7448 193.347 23.2318 192.697 22.9619C192.288 22.8002 191.638 22.8002 191.258 22.8002C190.936 22.8002 190.827 22.7168 190.827 22.5541C190.827 22.3398 191.123 22.312 191.53 22.312C192.941 22.312 194.245 22.3924 194.813 22.3924C195.111 22.3924 196.144 22.312 197.47 22.312C197.825 22.312 198.095 22.3398 198.095 22.5541C198.095 22.7168 197.934 22.8002 197.609 22.8002C197.336 22.8002 197.12 22.8002 196.794 22.8795C196.034 23.0968 195.816 23.6624 195.79 25.1775L195.491 42.2339C195.491 42.8302 195.381 43.0733 195.137 43.0733C194.84 43.0733 194.516 42.7756 194.216 42.48C192.507 40.8577 189.034 37.3154 186.211 34.5312C183.257 31.6111 180.246 28.2326 179.757 27.7186H179.676L179.972 39.0736Z" fill="#02275E"/>
<path fill-rule="evenodd" clip-rule="evenodd" d="M200.918 32.5309C200.918 27.9091 203.983 21.934 212.122 21.934C218.878 21.934 223.084 25.8532 223.084 32.0428C223.084 38.2362 218.743 43.1279 211.851 43.1279C204.066 43.1279 200.918 37.3154 200.918 32.5309ZM219.284 33.0439C219.284 26.9883 215.785 23.2318 211.337 23.2318C208.215 23.2318 204.664 24.9612 204.664 31.6935C204.664 37.3154 207.783 41.7775 212.991 41.7775C214.887 41.7775 219.284 40.8577 219.284 33.0439Z" fill="#02275E"/>
<path fill-rule="evenodd" clip-rule="evenodd" d="M228.753 30.1526C228.753 26.0418 228.753 25.2857 228.698 24.4195C228.644 23.5027 228.427 23.0691 227.533 22.8796C227.314 22.826 226.854 22.8002 226.474 22.8002C226.175 22.8002 226.011 22.7446 226.011 22.5541C226.011 22.3666 226.201 22.312 226.609 22.312C228.048 22.312 229.757 22.3924 230.327 22.3924C231.25 22.3924 233.311 22.312 234.153 22.312C235.86 22.312 237.678 22.4747 239.143 23.4749C239.903 23.9869 240.99 25.3661 240.99 27.1779C240.99 29.1792 240.147 31.0168 237.407 33.2334C239.822 36.2617 241.693 38.6669 243.295 40.3437C244.814 41.9095 245.925 42.1019 246.333 42.1823C246.63 42.2339 246.874 42.2627 247.093 42.2627C247.309 42.2627 247.418 42.3431 247.418 42.48C247.418 42.6953 247.228 42.7499 246.903 42.7499H244.325C242.805 42.7499 242.127 42.6149 241.422 42.2339C240.256 41.6138 239.223 40.3437 237.704 38.263C236.62 36.7757 235.373 34.9361 235.019 34.5313C234.884 34.3685 234.721 34.3427 234.53 34.3427L232.171 34.2882C232.036 34.2882 231.955 34.3427 231.955 34.5045V34.8835C231.955 37.3958 231.955 39.5331 232.088 40.6682C232.171 41.451 232.335 42.0474 233.146 42.1535C233.555 42.2081 234.153 42.2627 234.476 42.2627C234.692 42.2627 234.801 42.3431 234.801 42.48C234.801 42.6695 234.614 42.7499 234.26 42.7499C232.686 42.7499 230.681 42.6695 230.272 42.6695C229.757 42.6695 228.048 42.7499 226.963 42.7499C226.609 42.7499 226.419 42.6695 226.419 42.48C226.419 42.3431 226.529 42.2627 226.854 42.2627C227.262 42.2627 227.587 42.2081 227.829 42.1535C228.373 42.0474 228.508 41.451 228.618 40.6682C228.753 39.5331 228.753 37.3958 228.753 34.9093V30.1526ZM231.955 32.2869C231.955 32.5855 232.01 32.6937 232.197 32.774C232.767 32.9636 233.58 33.0439 234.26 33.0439C235.345 33.0439 235.698 32.9348 236.185 32.5855C236.999 31.9902 237.788 30.7469 237.788 28.5293C237.788 24.6904 235.235 23.5821 233.636 23.5821C232.956 23.5821 232.47 23.6108 232.197 23.6912C232.01 23.7448 231.955 23.8529 231.955 24.0692V32.2869Z" fill="#02275E"/>
<path fill-rule="evenodd" clip-rule="evenodd" d="M1 52.9529H70.5973V1H1V52.9529Z" stroke="#02275E" stroke-width="0.798"/>
<path fill-rule="evenodd" clip-rule="evenodd" d="M75.2831 48.3024V48.5376H78.37C78.6886 48.5376 78.9615 48.476 79.1885 48.349C79.2124 48.3352 79.2353 48.3203 79.2562 48.3044L81.1143 48.3024C80.9998 48.7678 80.7598 49.12 80.3943 49.3571C79.8616 49.7014 79.1297 49.8761 78.2017 49.8761H75.2831V52.4678C75.2831 52.6444 75.4375 52.7297 75.7472 52.7297V52.9917H73.0825V52.7297C73.439 52.7297 73.6182 52.6444 73.6182 52.4678V48.3024H75.2831ZM84.9121 48.3024V48.3907H87.7539C87.9481 48.3907 88.0975 48.3639 88.203 48.3103C88.212 48.3053 88.22 48.3004 88.2279 48.2954L88.6242 48.3024V50.1499H88.3633C88.3633 49.9306 88.3106 49.7847 88.203 49.7222C88.0975 49.6607 87.9481 49.627 87.7539 49.627H84.9121V51.6561H89.7554C89.9008 51.6561 90.0193 51.6223 90.1109 51.5559C90.2035 51.4854 90.2483 51.3941 90.2483 51.278H90.5102V53.2635H90.2483C90.2483 53.1206 90.2035 53.0402 90.1109 53.0224C90.0193 53.0015 89.9008 52.9916 89.7554 52.9916H82.9873V52.7297C83.054 52.7297 83.1147 52.7088 83.1685 52.6652C83.2223 52.6235 83.2482 52.559 83.2482 52.4677V48.3024H84.9121ZM96.7517 48.3026V52.468C96.7517 52.6446 96.8582 52.7299 97.0703 52.7299V52.9919H94.8279V52.7299C94.8946 52.7299 94.9553 52.7091 95.0081 52.6654C95.0609 52.6208 95.0878 52.5563 95.0878 52.468V48.3026H96.7517ZM108.992 48.3026L108.126 50.0241H110.708L109.935 48.3026H111.683L113.74 52.3509C113.787 52.4581 113.853 52.5354 113.934 52.5851C114.018 52.6337 114.112 52.6803 114.217 52.7299V52.9919H111.665V52.7299C111.704 52.7299 111.753 52.717 111.81 52.6853C111.868 52.6575 111.898 52.6109 111.898 52.5533C111.898 52.4551 111.859 52.3281 111.781 52.1723L111.231 51.0868H107.692L107.17 52.1286C107.073 52.333 107.025 52.4809 107.025 52.5692C107.025 52.6753 107.117 52.7299 107.301 52.7299V52.9919H105.241V52.7299C105.367 52.7121 105.465 52.6466 105.538 52.5434C105.611 52.4342 105.682 52.3122 105.748 52.1773L107.58 48.3026H108.992ZM117.745 48.3026V51.7575H119.993C120.445 51.7575 120.84 51.7169 121.179 51.6385C121.516 51.5581 121.798 51.4232 122.02 51.2237C122.242 51.0213 122.409 50.7574 122.52 50.428C122.63 50.0966 122.686 49.6759 122.686 49.1708C122.686 48.8473 122.663 48.5606 122.618 48.3096L124.285 48.3026C124.328 48.5755 124.35 48.8632 124.35 49.1708C124.35 49.8187 124.253 50.3843 124.058 50.8606C123.866 51.3408 123.6 51.7397 123.26 52.0562C122.921 52.3697 122.521 52.6079 122.062 52.7607C121.603 52.9165 121.106 52.9919 120.572 52.9919H115.748V52.7299C115.971 52.7299 116.081 52.6446 116.081 52.468V48.3026H117.745ZM127.962 48.3024C127.853 48.5683 127.799 48.8561 127.799 49.1706C127.799 49.5804 127.89 49.9426 128.075 50.267C128.256 50.5855 128.493 50.8584 128.79 51.0757C129.084 51.296 129.412 51.4646 129.779 51.5788C130.145 51.6978 130.512 51.7574 130.879 51.7574C131.244 51.7574 131.61 51.6978 131.975 51.5788C132.344 51.4646 132.672 51.296 132.965 51.0757C133.261 50.8584 133.5 50.5855 133.683 50.267C133.865 49.9426 133.957 49.5804 133.957 49.1706C133.957 48.8561 133.903 48.5683 133.796 48.3054L135.456 48.3024C135.517 48.5683 135.549 48.8571 135.549 49.1657C135.549 49.8394 135.401 50.4178 135.113 50.91C134.824 51.4002 134.452 51.804 134.001 52.1255C133.546 52.4469 133.046 52.6781 132.497 52.823C131.947 52.9708 131.407 53.0403 130.879 53.0403C130.348 53.0403 129.809 52.9708 129.261 52.823C128.709 52.6781 128.21 52.4469 127.757 52.1255C127.302 51.804 126.933 51.4002 126.643 50.91C126.355 50.4178 126.21 49.8394 126.21 49.1657C126.21 48.8571 126.241 48.5683 126.302 48.2975L127.962 48.3024ZM139.906 48.3026V48.5378H142.994C143.312 48.5378 143.584 48.4763 143.813 48.3492C143.837 48.3354 143.86 48.3205 143.881 48.3046L145.739 48.3026C145.623 48.768 145.383 49.1202 145.018 49.3573C144.484 49.7016 143.755 49.8763 142.825 49.8763H139.906V52.468C139.906 52.6446 140.062 52.7299 140.371 52.7299V52.9919H137.707V52.7299C138.065 52.7299 138.243 52.6446 138.243 52.468V48.3026H139.906ZM151.623 48.3026V52.468C151.623 52.6446 151.728 52.7299 151.941 52.7299V52.9919H149.698V52.7299C149.766 52.7299 149.826 52.7091 149.877 52.6654C149.932 52.6208 149.958 52.5563 149.958 52.468V48.3026H151.623ZM158.528 48.3026V52.468C158.528 52.6446 158.655 52.7299 158.906 52.7299V52.9919H156.487V52.7299C156.739 52.7299 156.864 52.6446 156.864 52.468V48.3026H158.528ZM162.933 48.3024C162.825 48.5683 162.771 48.8561 162.771 49.1706C162.771 49.5804 162.863 49.9426 163.045 50.267C163.229 50.5855 163.466 50.8584 163.76 51.0757C164.055 51.296 164.384 51.4646 164.752 51.5788C165.118 51.6978 165.483 51.7574 165.849 51.7574C166.216 51.7574 166.583 51.6978 166.949 51.5788C167.314 51.4646 167.645 51.296 167.938 51.0757C168.232 50.8584 168.472 50.5855 168.653 50.267C168.838 49.9426 168.929 49.5804 168.929 49.1706C168.929 48.8561 168.875 48.5683 168.768 48.3054L170.426 48.3024C170.485 48.5683 170.516 48.8571 170.516 49.1657C170.516 49.8394 170.373 50.4178 170.084 50.91C169.795 51.4002 169.424 51.804 168.971 52.1255C168.519 52.4469 168.016 52.6781 167.467 52.823C166.921 52.9708 166.38 53.0403 165.849 53.0403C165.321 53.0403 164.78 52.9708 164.231 52.823C163.682 52.6781 163.181 52.4469 162.727 52.1255C162.275 51.804 161.904 51.4002 161.613 50.91C161.326 50.4178 161.18 49.8394 161.18 49.1657C161.18 48.8571 161.211 48.5683 161.273 48.2975L162.933 48.3024ZM174.704 48.3026V52.468C174.704 52.6446 174.814 52.7299 175.037 52.7299V52.9919H172.889V52.7299C173.07 52.7299 173.167 52.6446 173.167 52.468V48.3026H174.704ZM177.625 48.3026L179.72 50.4845V48.3026H181.261V52.468C181.261 52.6446 181.352 52.7299 181.534 52.7299V52.9919H179.181V52.7299C179.307 52.7299 179.371 52.6853 179.371 52.5999C179.371 52.5325 179.294 52.4194 179.137 52.2636L175.352 48.3026H177.625ZM189.951 48.3026C189.87 48.5507 189.828 48.8245 189.828 49.1212C189.828 49.5419 189.912 49.912 190.075 50.2384C190.239 50.5679 190.46 50.8427 190.736 51.0679C191.009 51.2912 191.334 51.4648 191.709 51.5789C192.08 51.698 192.468 51.7575 192.874 51.7575C193.184 51.7575 193.509 51.7188 193.847 51.6464C194.185 51.574 194.492 51.4807 194.776 51.3686C195.055 51.2575 195.288 51.1304 195.478 50.9905C195.665 50.8506 195.759 50.7157 195.759 50.5887C195.759 50.5212 195.741 50.4647 195.702 50.4151L195.905 50.298L196.862 51.8409L196.745 51.9599C196.717 51.9599 196.691 51.957 196.665 51.95C196.643 51.947 196.615 51.9441 196.586 51.9441C196.529 51.9441 196.391 52.0016 196.173 52.1177C195.957 52.2318 195.681 52.3618 195.345 52.5067C195.013 52.6525 194.632 52.7765 194.208 52.8827C193.782 52.9889 193.34 53.0405 192.874 53.0405C192.266 53.0405 191.68 52.9631 191.118 52.8103C190.559 52.6545 190.062 52.4134 189.636 52.0869C189.207 51.7625 188.865 51.3557 188.615 50.8715C188.366 50.3863 188.241 49.8187 188.241 49.1658C188.241 48.8632 188.269 48.5775 188.324 48.3086L189.951 48.3026ZM201.175 48.3024V48.3907H204.018C204.211 48.3907 204.359 48.3639 204.465 48.3103C204.474 48.3053 204.482 48.3004 204.49 48.2954L204.885 48.3024V50.1499H204.628C204.628 49.9306 204.572 49.7847 204.465 49.7222C204.359 49.6607 204.211 49.627 204.018 49.627H201.175V51.6561H206.019C206.162 51.6561 206.282 51.6223 206.372 51.5559C206.464 51.4854 206.511 51.3941 206.511 51.278H206.771V53.2635H206.511C206.511 53.1206 206.464 53.0402 206.372 53.0224C206.282 53.0015 206.162 52.9916 206.019 52.9916H199.25V52.7297C199.317 52.7297 199.377 52.7088 199.432 52.6652C199.484 52.6235 199.511 52.559 199.511 52.4677V48.3024H201.175ZM210.878 48.3026V52.468C210.878 52.6446 210.99 52.7299 211.212 52.7299V52.9919H209.063V52.7299C209.247 52.7299 209.339 52.6446 209.339 52.468V48.3026H210.878ZM213.8 48.3026L215.894 50.4845V48.3026H217.434V52.468C217.434 52.6446 217.528 52.7299 217.71 52.7299V52.9919H215.355V52.7299C215.48 52.7299 215.545 52.6853 215.545 52.5999C215.545 52.5325 215.467 52.4194 215.311 52.2636L211.525 48.3026H213.8ZM224.378 48.3026V52.468C224.378 52.6446 224.484 52.7299 224.697 52.7299V52.9919H222.452V52.7299C222.517 52.7299 222.579 52.7091 222.632 52.6654C222.686 52.6208 222.713 52.5563 222.713 52.468V48.3026H224.378ZM231.234 48.3024V48.3907H234.075C234.267 48.3907 234.419 48.3639 234.525 48.3103C234.533 48.3053 234.542 48.3004 234.549 48.2954L234.947 48.3024V50.1499H234.684C234.684 49.9306 234.632 49.7847 234.525 49.7222C234.419 49.6607 234.267 49.627 234.075 49.627H231.234V51.6561H236.078C236.221 51.6561 236.341 51.6223 236.432 51.5559C236.523 51.4854 236.571 51.3941 236.571 51.278H236.831V53.2635H236.571C236.571 53.1206 236.523 53.0402 236.432 53.0224C236.341 53.0015 236.221 52.9916 236.078 52.9916H229.31V52.7297C229.374 52.7297 229.437 52.7088 229.489 52.6652C229.544 52.6235 229.57 52.559 229.57 52.4677V48.3024H231.234ZM241.037 48.3026V48.7382H243.555C243.9 48.7382 244.195 48.7094 244.426 48.6578C244.66 48.6033 244.842 48.5278 244.978 48.4316C245.033 48.3919 245.083 48.3492 245.126 48.3026H246.933C246.842 48.6112 246.681 48.8721 246.452 49.0775C246.073 49.4149 245.563 49.6431 244.923 49.7592L246.854 52.5275C246.918 52.6238 246.999 52.6803 247.09 52.7011C247.183 52.719 247.267 52.7299 247.345 52.7299V52.9919H244.631V52.7299C244.72 52.7299 244.794 52.717 244.858 52.6853C244.92 52.6575 244.952 52.6188 244.952 52.5692C244.952 52.5225 244.934 52.468 244.894 52.4035C244.855 52.341 244.796 52.2556 244.72 52.1465L243.118 49.8763H241.037V52.468C241.037 52.5563 241.067 52.6208 241.133 52.6654C241.193 52.7091 241.307 52.7299 241.471 52.7299V52.9919H238.95V52.7299C239.231 52.7299 239.372 52.6446 239.372 52.468V48.3026H241.037Z" fill="#7A3C40"/>
<path fill-rule="evenodd" clip-rule="evenodd" d="M73.6182 48.3029V45.8481C73.6182 45.6745 73.439 45.5832 73.0825 45.5832V45.3212H78.1987C79.1288 45.3212 79.8596 45.4959 80.3924 45.8402C80.9251 46.1845 81.193 46.7709 81.193 47.6004C81.193 47.8574 81.1661 48.0925 81.1143 48.3039L79.2562 48.3029C79.4384 48.1659 79.528 47.9318 79.528 47.6004C79.528 47.2273 79.4155 46.9783 79.1885 46.8512C78.9615 46.7213 78.6886 46.6588 78.37 46.6588H75.2831V48.3029H73.6182ZM83.2482 48.3024V45.8704C83.2482 45.7831 83.2223 45.7176 83.1685 45.674C83.1147 45.6323 83.054 45.6085 82.9873 45.6085V45.3465H89.611C89.8142 45.3465 89.9556 45.3138 90.0382 45.2463C90.1199 45.1789 90.1607 45.0876 90.1607 44.9764H90.4226V46.9053H90.1607C90.1607 46.7982 90.1199 46.7158 90.0382 46.6642C89.9556 46.6096 89.8142 46.5838 89.611 46.5838H84.9121V48.3024H83.2482ZM88.228 48.3024C88.3187 48.2329 88.3635 48.1 88.3635 47.8956H88.6244V48.3024H88.228ZM95.0877 48.3024V46.6583H92.6949C92.6083 46.6583 92.5237 46.6821 92.442 46.7317C92.3594 46.7803 92.3185 46.8716 92.3185 47.0085H92.0576V44.9764H92.3185C92.3185 45.1114 92.3594 45.2017 92.442 45.2513C92.5237 45.2979 92.6083 45.3207 92.6949 45.3207H99.1454C99.2311 45.3207 99.3167 45.2979 99.3984 45.2513C99.481 45.2017 99.5218 45.1114 99.5218 44.9764H99.7827V47.0085H99.5218C99.5218 46.8716 99.481 46.7803 99.3984 46.7317C99.3167 46.6821 99.2311 46.6583 99.1454 46.6583H96.7516V48.3024H95.0877ZM107.58 48.3029L108.431 46.504C108.5 46.3789 108.559 46.2599 108.613 46.1537C108.666 46.0475 108.693 45.9543 108.693 45.8769C108.693 45.7806 108.658 45.7102 108.591 45.6715C108.523 45.6348 108.451 45.604 108.374 45.5832V45.3212H110.825V45.5832C110.757 45.604 110.689 45.6328 110.622 45.6665C110.555 45.7003 110.52 45.7697 110.52 45.8769C110.52 45.9543 110.538 46.0317 110.572 46.11C110.605 46.1874 110.655 46.2916 110.723 46.4157L111.683 48.3029H109.935L109.491 47.3126L108.992 48.3029H107.58ZM116.081 48.3029V45.871C116.081 45.6953 115.971 45.609 115.748 45.609V45.3471H120.572C121.106 45.3471 121.603 45.4255 122.062 45.5812C122.521 45.736 122.921 45.9702 123.26 46.2837C123.6 46.5993 123.866 46.9991 124.058 47.4754C124.161 47.7304 124.237 48.0062 124.285 48.3069L122.618 48.3029C122.593 48.166 122.56 48.034 122.52 47.9139C122.409 47.5816 122.242 47.3176 122.02 47.1182C121.798 46.9187 121.516 46.7788 121.179 46.7005C120.84 46.6231 120.445 46.5844 119.993 46.5844H117.745V48.3029H116.081ZM126.302 48.3032C126.374 47.9817 126.488 47.691 126.643 47.427C126.933 46.9369 127.302 46.532 127.758 46.2106C128.21 45.8891 128.709 45.649 129.261 45.4882C129.809 45.3295 130.348 45.2491 130.879 45.2491C131.407 45.2491 131.947 45.3295 132.497 45.4882C133.046 45.649 133.546 45.8891 134.001 46.2106C134.452 46.532 134.824 46.9369 135.113 47.427C135.269 47.691 135.383 47.9817 135.456 48.2982L133.796 48.3032C133.764 48.2268 133.726 48.1494 133.683 48.075C133.5 47.7535 133.261 47.4836 132.965 47.2633C132.672 47.046 132.344 46.8773 131.976 46.7603C131.61 46.6442 131.244 46.5846 130.879 46.5846C130.512 46.5846 130.145 46.6442 129.779 46.7603C129.412 46.8773 129.084 47.046 128.79 47.2633C128.493 47.4836 128.256 47.7535 128.075 48.075C128.032 48.1494 127.994 48.2268 127.962 48.3061L126.302 48.3032ZM138.243 48.3029V45.8481C138.243 45.6745 138.065 45.5832 137.707 45.5832V45.3212H142.822C143.753 45.3212 144.483 45.4959 145.015 45.8402C145.55 46.1845 145.817 46.7709 145.817 47.6004C145.817 47.8574 145.791 48.0925 145.739 48.3039L143.881 48.3029C144.062 48.1659 144.152 47.9318 144.152 47.6004C144.152 47.2273 144.04 46.9783 143.813 46.8512C143.584 46.7213 143.312 46.6588 142.994 46.6588H139.906V48.3029H138.243ZM149.958 48.3024V46.6583H147.565C147.478 46.6583 147.396 46.6821 147.311 46.7317C147.23 46.7803 147.188 46.8716 147.188 47.0085H146.927V44.9764H147.188C147.188 45.1114 147.23 45.2017 147.311 45.2513C147.396 45.2979 147.478 45.3207 147.565 45.3207H154.015C154.102 45.3207 154.188 45.2979 154.269 45.2513C154.352 45.2017 154.392 45.1114 154.392 44.9764H154.654V47.0085H154.392C154.392 46.8716 154.352 46.7803 154.269 46.7317C154.188 46.6821 154.102 46.6583 154.015 46.6583H151.623V48.3024H149.958ZM156.864 48.3029V45.8481C156.864 45.6745 156.739 45.5832 156.487 45.5832V45.3212H158.906V45.5832C158.655 45.5832 158.528 45.6745 158.528 45.8481V48.3029H156.864ZM161.273 48.3032C161.344 47.9817 161.459 47.691 161.613 47.427C161.904 46.9369 162.275 46.532 162.727 46.2106C163.18 45.8891 163.682 45.649 164.231 45.4882C164.78 45.3295 165.321 45.2491 165.849 45.2491C166.38 45.2491 166.921 45.3295 167.467 45.4882C168.016 45.649 168.519 45.8891 168.971 46.2106C169.424 46.532 169.795 46.9369 170.084 47.427C170.24 47.691 170.354 47.9817 170.425 48.2982L168.768 48.3032C168.735 48.2268 168.696 48.1494 168.653 48.075C168.472 47.7535 168.232 47.4836 167.938 47.2633C167.644 47.046 167.314 46.8773 166.949 46.7603C166.583 46.6442 166.216 46.5846 165.849 46.5846C165.483 46.5846 165.118 46.6442 164.752 46.7603C164.384 46.8773 164.055 47.046 163.76 47.2633C163.466 47.4836 163.229 47.7535 163.045 48.075C163.002 48.1494 162.964 48.2268 162.933 48.3061L161.273 48.3032ZM173.167 48.3029V45.8481C173.167 45.6745 173.07 45.5832 172.889 45.5832V45.3212H175.374V45.5832C175.298 45.5832 175.258 45.6348 175.258 45.731C175.258 45.8094 175.355 45.9463 175.548 46.1378L177.625 48.3029H175.352L174.704 47.6262V48.3029H173.167ZM179.72 48.3029V45.8481C179.72 45.6745 179.596 45.5832 179.343 45.5832V45.3212H181.534V45.5832C181.352 45.5832 181.261 45.6745 181.261 45.8481V48.3029H179.72ZM188.324 48.3032C188.387 48.0085 188.484 47.7297 188.615 47.4707C188.865 46.9805 189.207 46.5687 189.636 46.2393C190.062 45.9099 190.559 45.6619 191.118 45.4962C191.68 45.3324 192.265 45.2491 192.874 45.2491C193.368 45.2491 193.816 45.2878 194.216 45.3632C194.616 45.4416 194.968 45.522 195.265 45.6073C195.566 45.6956 195.803 45.776 195.978 45.8534C196.152 45.9288 196.258 45.9675 196.297 45.9675C196.344 45.9675 196.386 45.9436 196.42 45.897L196.5 45.7809L196.716 45.9546L195.584 47.7088L195.439 47.6086C195.439 47.5798 195.439 47.5481 195.434 47.5203L195.413 47.4191C195.392 47.3129 195.296 47.2008 195.121 47.0897C194.947 46.9785 194.732 46.8793 194.476 46.792C194.219 46.7037 193.951 46.6313 193.665 46.5737C193.379 46.5142 193.116 46.4854 192.874 46.4854C192.468 46.4854 192.08 46.5449 191.709 46.662C191.333 46.7791 191.009 46.9498 190.736 47.175C190.46 47.3983 190.239 47.6761 190.075 48.0025C190.027 48.0978 189.985 48.198 189.951 48.3012L188.324 48.3032ZM199.511 48.3024V45.8704C199.511 45.7831 199.484 45.7176 199.432 45.674C199.377 45.6323 199.317 45.6085 199.25 45.6085V45.3465H205.873C206.076 45.3465 206.219 45.3138 206.3 45.2463C206.383 45.1789 206.425 45.0876 206.425 44.9764H206.685V46.9053H206.425C206.425 46.7982 206.383 46.7158 206.3 46.6642C206.219 46.6096 206.076 46.5838 205.873 46.5838H201.175V48.3024H199.511ZM204.49 48.3024C204.581 48.2329 204.628 48.1 204.628 47.8956H204.885V48.3024H204.49ZM209.339 48.3029V45.8481C209.339 45.6745 209.247 45.5832 209.063 45.5832V45.3212H211.549V45.5832C211.469 45.5832 211.433 45.6348 211.433 45.731C211.433 45.8094 211.529 45.9463 211.722 46.1378L213.8 48.3029H211.525L210.878 47.6262V48.3029H209.339ZM215.894 48.3029V45.8481C215.894 45.6745 215.769 45.5832 215.516 45.5832V45.3212H217.71V45.5832C217.528 45.5832 217.434 45.6745 217.434 45.8481V48.3029H215.894ZM222.713 48.3024V46.6583H220.319C220.233 46.6583 220.148 46.6821 220.066 46.7317C219.983 46.7803 219.944 46.8716 219.944 47.0085H219.682V44.9764H219.944C219.944 45.1114 219.983 45.2017 220.066 45.2513C220.148 45.2979 220.233 45.3207 220.319 45.3207H226.77C226.856 45.3207 226.94 45.2979 227.023 45.2513C227.106 45.2017 227.148 45.1114 227.148 44.9764H227.408V47.0085H227.148C227.148 46.8716 227.106 46.7803 227.023 46.7317C226.94 46.6821 226.856 46.6583 226.77 46.6583H224.378V48.3024H222.713ZM229.57 48.3024V45.8704C229.57 45.7831 229.544 45.7176 229.489 45.674C229.437 45.6323 229.374 45.6085 229.31 45.6085V45.3465H235.932C236.135 45.3465 236.276 45.3138 236.359 45.2463C236.442 45.1789 236.484 45.0876 236.484 44.9764H236.744V46.9053H236.484C236.484 46.7982 236.442 46.7158 236.359 46.6642C236.276 46.6096 236.135 46.5838 235.932 46.5838H231.234V48.3024H229.57ZM234.549 48.3024C234.64 48.2329 234.684 48.1 234.684 47.8956H234.947V48.3024H234.549ZM239.372 48.3029V45.871C239.372 45.6953 239.231 45.609 238.95 45.609V45.3471H243.932C244.397 45.3471 244.821 45.3887 245.201 45.4721C245.578 45.5525 245.904 45.6844 246.177 45.863C246.447 46.0426 246.656 46.2758 246.804 46.5586C246.947 46.8453 247.022 47.1936 247.022 47.6103C247.022 47.8623 246.992 48.0906 246.933 48.2959L245.126 48.3029C245.188 48.2374 245.236 48.166 245.269 48.0896C245.329 47.9606 245.357 47.8177 245.357 47.6599C245.357 47.5071 245.329 47.3613 245.269 47.2323C245.212 47.1023 245.113 46.9862 244.978 46.89C244.842 46.7937 244.66 46.7163 244.426 46.6647C244.195 46.6102 243.9 46.5844 243.555 46.5844H241.037V48.3029H239.372Z" fill="#7A3C40"/>
</svg>
